# xmcd
#
# Track frame offsets: 
#        150
#        14742
#        33995
#        52799
#        69458
#        85304
#        103033
#        121798
#        138653
#        159433
#        180204
#        196111
#        215643
#        235829
#        254339
#        271690
#
# Disc length: 3789 seconds
#
# Revision: 1
# Processed by: cddbd v1.5.2PL0 Copyright (c) Steve Scherf et al.
# Submitted via: ExactAudioCopy v0.95b4
#
DISCID=d20ecb10
DTITLE=Various Artist - 97 Original Hits 90's [CD3)
DYEAR=2009
DGENRE=90's
TTITLE0=Geri Halliwell - Mi Chico Latino
TTITLE1=Eternal - Just A Step From Heaven
TTITLE2=Soul II Soul - A Dream's A Dream
TTITLE3=Billie Piper - Honey To The Bee
TTITLE4=911 - A Little Bit More
TTITLE5=Louise - One Kiss From Heaven
TTITLE6=MC Hammer - Pray
TTITLE7=Mica Paris - One
TTITLE8=Everything But The Girl - Wrong
TTITLE9=Sinead O'Connor - Thank You For Hearing Me
TTITLE10=The Sundays - Summertime
TTITLE11=Duran Duran - Ordinary World
TTITLE12=The Human League - Heart Like A Wheel
TTITLE13=Orchestral Manoeuvers In The Dark - Pandora's Box
TTITLE14=Deborah Harry - I Can See Clearly
TTITLE15=Fun Lovin' Criminals - Korean Bodega
EXTD=
EXTT0=
EXTT1=
EXTT2=
EXTT3=
EXTT4=
EXTT5=
EXTT6=
EXTT7=
EXTT8=
EXTT9=
EXTT10=
EXTT11=
EXTT12=
EXTT13=
EXTT14=
EXTT15=
PLAYORDER=
